<svg xmlns="http://www.w3.org/2000/svg" viewBox="0 0 1024 1024" role="img" aria-labelledby="title desc">
  <title id="title">TSRA duality field mark — light surface</title>
  <desc id="desc">A light-surface variant of the TSRA monoline seismic mark with stronger ink, brass, moss, phase ticks, and diagonal fault trace.</desc>

  <!-- warm ink underlay: just enough bite for bone-paper light mode -->
  <g fill="none" stroke="#4f4637" stroke-width="58" stroke-linecap="round" stroke-linejoin="round" opacity="0.26">
    <polyline points="260.0,648.0 253.8,630.2 248.9,612.3 245.3,594.3 242.9,576.3 241.8,558.3 241.9,540.4 243.2,522.6 245.6,505.0 249.1,487.6 253.7,470.4 259.4,453.5 266.1,436.9 273.8,420.7 282.5,404.9 292.2,389.5 302.7,374.7 314.2,360.4 326.5,346.6 339.7,333.5 353.6,321.1 368.4,309.4 383.9,298.5 400.1,288.3 417.0,279.0 434.7,270.6 452.6,263.2 470.7,257.0 489.0,251.9 507.5,247.9 526.0,245.0 544.5,243.1 563.0,242.3 581.4,242.6 599.6,243.9 617.7,246.3 635.5,249.8 653.0,254.2 670.2,259.7 687.0,266.2 703.4,273.7 719.2,282.2 734.5,291.7 749.2,302.1 763.3,313.6 776.7,326.0 789.3,339.4 801.1,353.7 812.0,369.0"/>
    <polyline points="764.0,376.0 770.1,393.8 774.9,411.7 778.4,429.7 780.7,447.7 781.8,465.7 781.7,483.6 780.4,501.4 778.0,519.0 774.4,536.4 769.8,553.6 764.2,570.5 757.5,587.1 749.8,603.3 741.2,619.1 731.6,634.5 721.0,649.3 709.6,663.6 697.3,677.4 684.2,690.5 670.3,702.9 655.6,714.6 640.1,725.5 623.9,735.7 607.0,745.0 589.2,753.4 571.2,760.8 553.0,767.0 534.6,772.1 516.1,776.1 497.6,779.0 479.1,780.9 460.6,781.7 442.2,781.4 423.9,780.1 405.8,777.7 388.0,774.2 370.5,769.8 353.3,764.3 336.5,757.8 320.1,750.3 304.2,741.8 288.9,732.3 274.2,721.9 260.1,710.4 246.6,698.0 234.0,684.6 222.1,670.3 211.0,655.0"/>
    <path d="M312 760 L720 264"/>
  </g>

  <g fill="none" stroke-linecap="round" stroke-linejoin="round">
    <polyline points="260.0,648.0 253.8,630.2 248.9,612.3 245.3,594.3 242.9,576.3 241.8,558.3 241.9,540.4 243.2,522.6 245.6,505.0 249.1,487.6 253.7,470.4 259.4,453.5 266.1,436.9 273.8,420.7 282.5,404.9 292.2,389.5 302.7,374.7 314.2,360.4 326.5,346.6 339.7,333.5 353.6,321.1 368.4,309.4 383.9,298.5 400.1,288.3 417.0,279.0 434.7,270.6 452.6,263.2 470.7,257.0 489.0,251.9 507.5,247.9 526.0,245.0 544.5,243.1 563.0,242.3 581.4,242.6 599.6,243.9 617.7,246.3 635.5,249.8 653.0,254.2 670.2,259.7 687.0,266.2 703.4,273.7 719.2,282.2 734.5,291.7 749.2,302.1 763.3,313.6 776.7,326.0 789.3,339.4 801.1,353.7 812.0,369.0" stroke="#d1ad63" stroke-width="34"/>
    <polyline points="764.0,376.0 770.1,393.8 774.9,411.7 778.4,429.7 780.7,447.7 781.8,465.7 781.7,483.6 780.4,501.4 778.0,519.0 774.4,536.4 769.8,553.6 764.2,570.5 757.5,587.1 749.8,603.3 741.2,619.1 731.6,634.5 721.0,649.3 709.6,663.6 697.3,677.4 684.2,690.5 670.3,702.9 655.6,714.6 640.1,725.5 623.9,735.7 607.0,745.0 589.2,753.4 571.2,760.8 553.0,767.0 534.6,772.1 516.1,776.1 497.6,779.0 479.1,780.9 460.6,781.7 442.2,781.4 423.9,780.1 405.8,777.7 388.0,774.2 370.5,769.8 353.3,764.3 336.5,757.8 320.1,750.3 304.2,741.8 288.9,732.3 274.2,721.9 260.1,710.4 246.6,698.0 234.0,684.6 222.1,670.3 211.0,655.0" stroke="#9a773e" stroke-width="34"/>

    <path d="M312 760 L720 264" stroke="#c09a54" stroke-width="28"/>
    <path d="M334 734 L698 290" stroke="#5f5543" stroke-width="8" opacity="0.78"/>

    <g stroke="#6c614e" stroke-width="22" opacity="0.88">
      <path d="M453 594 l-45 -37"/>
      <path d="M529 502 l-45 -37"/>
      <path d="M606 409 l-45 -37"/>
    </g>

    <circle cx="295" cy="648" r="20" stroke="#6f875f" stroke-width="18"/>
    <circle cx="728" cy="374" r="20" stroke="#9a773e" stroke-width="18"/>
  </g>
</svg>
